<svg width="44" height="44" viewBox="0 0 44 44" fill="none" xmlns="http://www.w3.org/2000/svg">
<path d="M44 0H0V44H44V0Z" fill="white"/>
<path d="M42.7271 30.3682H1.27728V42.7198H42.7271V30.3682Z" fill="#ED1B2F"/>
<path d="M42.7271 1.27574H1.27728V29.0657H42.7271V1.27574Z" fill="#192F7C"/>
<path d="M42.7271 29.0701H1.27728V30.4619H42.7271V29.0701Z" fill="white"/>
<path d="M30.3179 26.2912C32.8459 26.2912 35.1211 25.1358 36.6378 23.3248L37.21 24.9039L41.6228 24.8994L34.0788 4.05921L29.6704 4.06812L31.7238 9.73762C31.267 9.65733 30.7969 9.61719 30.3179 9.61719C25.7188 9.61719 22.0022 13.3552 22.0022 17.9765C22.0022 22.5531 25.7143 26.2912 30.3179 26.2912ZM17.1636 4.05474H28.1093L29.5994 8.22547H18.6671L17.1636 4.05474ZM10.9723 26.2912C13.5047 26.2912 15.7799 25.1314 17.2966 23.3159L17.8776 24.8905L22.2816 24.886L18.738 15.1172C17.5761 11.91 14.5292 9.61719 10.9678 9.61719C6.36871 9.61719 2.65659 13.3552 2.65659 17.9765C2.66102 22.5531 6.37315 26.2912 10.9723 26.2912Z" fill="white"/>
<path d="M10.959 22.1204C13.2341 22.1204 15.0924 20.2514 15.0924 17.9631C15.0924 15.6525 13.2386 13.7835 10.959 13.7835C8.65719 13.7835 6.80334 15.6525 6.80334 17.9631C6.80334 20.2514 8.66162 22.1204 10.959 22.1204Z" fill="#ED1B2F"/>
<path d="M10.2494 38.8881V34.1865H11.5799C12.1032 34.1865 12.4669 34.2133 12.6709 34.2579C12.8749 34.307 13.0523 34.3873 13.2031 34.4988C13.3716 34.6237 13.5002 34.7932 13.5889 34.9895C13.6821 35.1857 13.722 35.4088 13.722 35.6452C13.722 36.011 13.6333 36.3054 13.4559 36.5328C13.2785 36.7603 13.0168 36.912 12.6753 36.9834L13.9482 38.8792H12.5112L11.4379 37.0369V38.8792H10.2494V38.8881ZM11.4468 36.4124H11.6819C11.9569 36.4124 12.1564 36.3678 12.2806 36.2697C12.4092 36.176 12.4713 36.0288 12.4713 35.8281C12.4713 35.5917 12.4092 35.4221 12.2939 35.324C12.1742 35.2259 11.979 35.1768 11.6996 35.1768H11.4424V36.4124H11.4468ZM14.4139 34.191H15.6867V36.4749C15.6867 36.8139 15.6956 37.0547 15.7133 37.1975C15.7311 37.3447 15.7577 37.4651 15.802 37.5633C15.8508 37.6837 15.9351 37.7729 16.0548 37.8398C16.1746 37.9023 16.3254 37.9335 16.4983 37.9335C16.6713 37.9335 16.8221 37.9023 16.9418 37.8398C17.0616 37.7774 17.1503 37.6837 17.1991 37.5633C17.2434 37.4651 17.27 37.3402 17.2878 37.1975C17.3055 37.0503 17.3099 36.8094 17.3099 36.4749V36.1537V34.191H18.5784V36.6756C18.5784 37.1886 18.5473 37.5677 18.4852 37.8131C18.4231 38.0584 18.3211 38.268 18.1703 38.442C18.0107 38.6294 17.7934 38.7766 17.514 38.8702C17.2345 38.9639 16.8975 39.013 16.4983 39.013C16.0992 39.013 15.7577 38.9684 15.4827 38.8702C15.2077 38.7766 14.986 38.6294 14.8263 38.442C14.68 38.268 14.578 38.0584 14.5159 37.8131C14.4538 37.5677 14.4227 37.1886 14.4227 36.6756V36.1849V34.191H14.4139ZM19.7448 37.3715C19.931 37.5856 20.1218 37.7506 20.3036 37.8532C20.4899 37.9603 20.6717 38.0138 20.8535 38.0138C21.0221 38.0138 21.164 37.9692 21.2749 37.8755C21.3857 37.7818 21.439 37.6659 21.439 37.5276C21.439 37.3715 21.3946 37.251 21.297 37.1663C21.2039 37.0815 20.991 36.9923 20.654 36.9031C20.1927 36.7782 19.8734 36.6176 19.6827 36.4213C19.4964 36.2251 19.3988 35.9485 19.3988 35.605C19.3988 35.1545 19.5452 34.7887 19.8468 34.5077C20.1439 34.2222 20.5342 34.0795 21.0088 34.0795C21.266 34.0795 21.5099 34.1152 21.7405 34.1865C21.9712 34.2579 22.1885 34.3605 22.3969 34.5033L21.9978 35.4221C21.8514 35.2972 21.7051 35.2036 21.5543 35.1411C21.399 35.0787 21.2527 35.0475 21.1019 35.0475C20.9467 35.0475 20.8225 35.0831 20.7249 35.159C20.6318 35.2303 20.583 35.3285 20.583 35.4444C20.583 35.5604 20.6273 35.6586 20.7072 35.7255C20.7914 35.7968 20.9511 35.8637 21.1906 35.9307L21.2482 35.9485C21.7671 36.0868 22.1087 36.2429 22.2728 36.4124C22.3836 36.5284 22.4679 36.6667 22.5255 36.8273C22.5832 36.9878 22.6098 37.1663 22.6098 37.3625C22.6098 37.8621 22.4457 38.2591 22.1219 38.5624C21.7982 38.8658 21.3636 39.0174 20.8225 39.0174C20.4943 39.0174 20.2016 38.9639 19.931 38.8524C19.6649 38.7409 19.4077 38.5669 19.1593 38.3305L19.7448 37.3715ZM23.5456 37.3715C23.7319 37.5856 23.9226 37.7506 24.1044 37.8532C24.2862 37.9603 24.4681 38.0138 24.6544 38.0138C24.8273 38.0138 24.9648 37.9692 25.0713 37.8755C25.1821 37.7818 25.2354 37.6659 25.2354 37.5276C25.2354 37.3715 25.191 37.251 25.0934 37.1663C25.0003 37.0815 24.7874 36.9923 24.4503 36.9031C23.9935 36.7782 23.6698 36.6176 23.4791 36.4213C23.2884 36.2251 23.1952 35.9485 23.1952 35.605C23.1952 35.1545 23.346 34.7887 23.6432 34.5077C23.9403 34.2222 24.3306 34.0795 24.8052 34.0795C25.0624 34.0795 25.3063 34.1152 25.5369 34.1865C25.7676 34.2579 25.9849 34.3605 26.1933 34.5033L25.7942 35.4221C25.6478 35.2972 25.5014 35.2036 25.3507 35.1411C25.1999 35.0787 25.0491 35.0475 24.8983 35.0475C24.7475 35.0475 24.6189 35.0831 24.5257 35.159C24.4326 35.2303 24.3838 35.3285 24.3838 35.4444C24.3838 35.5604 24.4237 35.6586 24.508 35.7255C24.5923 35.7968 24.7564 35.8637 24.9914 35.9307L25.0491 35.9485C25.568 36.0868 25.9095 36.2429 26.0736 36.4124C26.1844 36.5284 26.2687 36.6667 26.3264 36.8273C26.384 36.9878 26.4106 37.1663 26.4106 37.3625C26.4106 37.8621 26.2465 38.2591 25.9228 38.5624C25.5946 38.8658 25.1644 39.0174 24.6233 39.0174C24.2951 39.0174 24.0024 38.9639 23.7363 38.8524C23.4702 38.7409 23.213 38.5669 22.9646 38.3305L23.5456 37.3715ZM27.1646 34.191H28.4508V38.8925H27.1646V34.191ZM30.7126 37.135H31.981L31.5021 35.5827C31.4888 35.5337 31.4666 35.4623 31.4444 35.3552C31.4178 35.2526 31.3823 35.1188 31.3424 34.9493C31.3158 35.0653 31.2892 35.1768 31.2581 35.2839C31.2315 35.3865 31.2049 35.4891 31.1783 35.5827L30.7126 37.135ZM28.9297 38.8881L30.5397 34.1865H32.1363L33.7506 38.8881H32.4822L32.2427 38.045H30.4332L30.1937 38.8881H28.9297Z" fill="white"/>
<path d="M30.3046 22.1204C32.5798 22.1204 34.4381 20.2514 34.4381 17.9631C34.4381 15.6525 32.5798 13.7835 30.3046 13.7835C28.0073 13.7835 26.149 15.6525 26.149 17.9631C26.149 20.2514 28.0028 22.1204 30.3046 22.1204Z" fill="#ED1B2F"/>
</svg>
