<svg xmlns="http://www.w3.org/2000/svg" viewBox="0 0 181 59"><path fill="#CD242F" d="M29.25 52.1a22.999 22.999 0 0 1-7.53-1.28v6.7a29.25 29.25 0 0 0 15.09 0v-6.7a23 23 0 0 1-7.55 1.28M29.25 6.41a22.71 22.71 0 0 1 7.55 1.28V.99a29.25 29.25 0 0 0-15.09 0v6.7a22.69 22.69 0 0 1 7.54-1.28M6.41 29.26a22.71 22.71 0 0 1 1.28-7.55H.99a29.25 29.25 0 0 0 0 15.09h6.73a22.69 22.69 0 0 1-1.28-7.54M49.31 40.2a23.58 23.58 0 0 0 1.51-3.4h-14v14a23.58 23.58 0 0 0 3.4-1.51l4.68 4.67a29.49 29.49 0 0 0 9.1-9.1l-4.69-4.66zM18.3 9.2l-4.67-4.67a29.27 29.27 0 0 0-9.1 9.1L9.2 18.3a23.098 23.098 0 0 0-1.51 3.41h14v-14c-1.174.415-2.314.92-3.41 1.51"/><path fill="#CD242F" d="M12.6 36.8H7.72a23.1 23.1 0 0 0 1.51 3.41l-4.67 4.67a29.38 29.38 0 0 0 9.1 9.1l4.67-4.67c1.09.59 2.223 1.094 3.39 1.51v-14l-9.12-.02zM53.98 13.63a29.378 29.378 0 0 0-9.1-9.1L40.2 9.2a22.528 22.528 0 0 0-3.4-1.51v14h14a24.202 24.202 0 0 0-1.51-3.41l4.69-4.65z"/><path fill="#fff" d="M63.72 44.56L62.5 42.4l-1.23 2.16h2.45zm-.55-3.13l3.13 5.2h-1.42l-.66-1.15h-3.44l-.65 1.15h-1.27l3.09-5.2h1.22zM71.33 45.71h2.86a.69.69 0 0 0 .45-.12.43.43 0 0 0 .12-.35v-.4a.44.44 0 0 0-.12-.35.69.69 0 0 0-.47-.11h-2.84v1.33zm0-3.42v1.23h2.83a.74.74 0 0 0 .46-.1.31.31 0 0 0 .1-.27v-.49a.379.379 0 0 0-.11-.29s-.13-.08-.45-.08h-2.83zm3.42-.86c.352-.04.707.05 1 .25a1.001 1.001 0 0 1 .27.75v.63a.77.77 0 0 1-.25.6 1.19 1.19 0 0 1-.64.29c.243.029.47.134.65.3a1 1 0 0 1 .27.69v.67a.84.84 0 0 1-.42.77 2.16 2.16 0 0 1-1.1.25h-4.42v-5.2h4.64zM83.71 46.63h-1.26v-4.28h-2.52v-.93h6.3v.93h-2.52v4.28zM95.72 42.41H91.5v3.23h4.22v-3.23zm-5.48.25a1.38 1.38 0 0 1 .29-1 1.54 1.54 0 0 1 1-.24h4.07a1.7 1.7 0 0 1 1.09.27c.214.287.307.645.26 1v2.8a1.25 1.25 0 0 1-.26.88 1.469 1.469 0 0 1-1.09.29h-4a1.66 1.66 0 0 1-1.1-.27 1.45 1.45 0 0 1-.26-1v-2.73zM102.66 43.06l-1.25-.18v-.31a1.184 1.184 0 0 1 .29-.9 1.65 1.65 0 0 1 1-.24h3.55a1.29 1.29 0 0 1 .82.23.91.91 0 0 1 .3.77v.63a.795.795 0 0 1-.25.6 1.3 1.3 0 0 1-.64.29c.243.027.472.132.65.3.09.09.161.198.208.317a.933.933 0 0 1 .062.373v.67a.848.848 0 0 1-.58.86c-.321.114-.66.169-1 .16h-3.1a1.64 1.64 0 0 1-1.13-.31 1.409 1.409 0 0 1-.24-.84v-.39l1.26-.26v.88h2.91a.73.73 0 0 0 .48-.12.402.402 0 0 0 .13-.33v-.45a.401.401 0 0 0-.03-.174.4.4 0 0 0-.1-.146.66.66 0 0 0-.44-.11h-1.95v-.86h2a.56.56 0 0 0 .37-.09.37.37 0 0 0 .11-.28v-.5a.334.334 0 0 0-.11-.28.77.77 0 0 0-.44-.08h-2.87l-.01.77zM116.04 44.56l-1.22-2.16-1.23 2.16h2.45zm-.55-3.13l3.13 5.2h-1.42l-.65-1.15h-3.45l-.65 1.15h-1.27l3.09-5.2h1.22zM128.76 41.42v5.21h-1.26v-4.17h-3.87v4.17h-1.26v-5.21h6.39zM139.15 41.43v5.2h-1.26v-1.9h-3.43a1.51 1.51 0 0 1-.92-.23.944.944 0 0 1-.3-.77v-2.3h1.18v1.89a.355.355 0 0 0 .13.32.619.619 0 0 0 .38.1h3v-2.32l1.22.01zM147.99 44.56l-1.22-2.16-1.23 2.16h2.45zm-.55-3.13l3.13 5.2h-1.42l-.66-1.15h-3.44l-.65 1.15h-1.27l3.09-5.2h1.22zM160.17 45.4a1.247 1.247 0 0 1-.3 1 1.57 1.57 0 0 1-1.07.25h-3.25a1.66 1.66 0 0 1-1.07-.26 1.313 1.313 0 0 1-.28-1v-2.74a1.256 1.256 0 0 1 .29-1 1.63 1.63 0 0 1 1.06-.24h3.25a1.58 1.58 0 0 1 1.07.24c.118.136.206.295.257.468.052.172.067.353.043.532v.52l-1.26.19v-1h-3.46v3.23h3.46v-1.1l1.26.26v.65zM167.8 46.63h-1.25v-4.28h-2.53v-.93h6.3v.93h-2.52v4.28zM175.67 41.42v3.79l4.49-3.79h1.01v5.21h-1.26v-3.79l-4.49 3.79h-1v-5.21h1.25zM19.77 30.48v.51c0 .29.92.52 2 .52h3.26c1.13 0 2-.23 2-.51v-.52h-7.26zm-5-6.1h14c2 0 3.58.74 3.58 2.72v4.12c0 2-1.6 2.72-3.58 2.72H18.32c-2 0-3.58-1.13-3.57-2.51v-2.21c0-.62.59-1.22 1.68-1.22h10.69v-.49c0-.27-.91-.49-2-.49h-10.4l.05-2.64zM51.12 31.23c0 2-1.6 2.71-3.58 2.71H37.32c-2 0-3.58-.74-3.58-2.71v-6.85h5.32v5.94c0 1.13.92 1.18 2 1.18h3c1.13 0 2-.05 2-1.18v-5.95h4.91l.15 6.86zM66.99 33.94H56.12a3.59 3.59 0 0 1-3.58-3.59v-9.48h5v3.51h9.43v2.46h-9.41v4.54h9.42l.01 2.56zM73.84 28.01v2.19c0 1.13.92 1.18 2.05 1.18h2.52c1.13 0 2-.05 2-1.18v-2.19c0-1.13-.91-1.17-2-1.17h-2.53c-1.13 0-2.05 0-2 1.17h-.04zm8.49 5.93h-10.3c-2 0-3.58-.74-3.58-2.71V27.1c0-2 1.61-2.72 3.58-2.72h10.29c2 0 3.58.74 3.59 2.72v4.13c0 2-1.6 2.71-3.58 2.71zM111.6 28.01v2.19c0 1.13.92 1.18 2.05 1.18h2.52c1.13 0 2-.05 2-1.18v-2.19c0-1.13-.91-1.17-2-1.17h-2.53c-1.13 0-2.05 0-2 1.17h-.04zm8.49 5.93h-10.37c-2 0-3.58-.74-3.58-2.71V27.1c0-2 1.61-2.72 3.58-2.72h10.29c2 0 3.58.74 3.59 2.72v4.13c0 2-1.6 2.71-3.58 2.71M99.33 30.2c0 1.13-.91 1.18-2 1.18h-2.52c-1.13 0-2.05-.05-2.05-1.18v-2.19c0-1.13.91-1.17 2-1.17h2.53c1.13 0 2 0 2 1.17l.04 2.19zm5.42-9.33h-5.42v3.51h-8.46c-2 0-3.58.74-3.58 2.72v4.13c0 2 1.61 2.71 3.58 2.71h10.3c2 0 3.58-.74 3.58-2.71V20.87zM135.05 31.38h-2.52c-1.13 0-2.05-.05-2.05-1.18v-2.19c0-1.13.91-1.17 2-1.17h10v-2.46h-13.85c-2 0-3.58.74-3.58 2.72v4.13c0 2 1.61 2.71 3.58 2.71h13.87v-2.56h-7.45z"/><path fill="#CD242F" d="M181.17 35.98c0 2-1.6 2.71-3.58 2.71h-10.22c-2 0-3.58-.74-3.58-2.71v-6.85h5.31v5.95c0 1.14.92 1.18 2.05 1.18h3c1.13 0 2.05 0 2.05-1.18v-5.95h4.91l.06 6.85zM150.11 38.69v-5.92c0-1.14.91-1.18 2-1.18h10v-2.45h-13.85c-2 0-3.58.73-3.58 2.71v6.84h5.43zM142.48 36.25h-3.07v2.43h3.07v-2.43z"/></svg>